<svg xmlns="http://www.w3.org/2000/svg" viewBox="0 0 48 48">
  <defs>
    <radialGradient id="bg" cx="50%" cy="35%" r="65%">
      <stop offset="0%" stop-color="#211d95"/>
      <stop offset="100%" stop-color="#07054a"/>
    </radialGradient>
    <linearGradient id="a" x1="0%" y1="0%" x2="100%" y2="0%">
      <stop offset="0%" stop-color="#f59e0b"/>
      <stop offset="100%" stop-color="#fb923c"/>
    </linearGradient>
  </defs>
  <circle cx="24" cy="24" r="23.5" fill="url(#a)"/>
  <circle cx="24" cy="24" r="21.5" fill="white"/>
  <circle cx="24" cy="24" r="20" fill="#06043a"/>
  <circle cx="24" cy="24" r="19" fill="url(#a)"/>
  <circle cx="24" cy="24" r="18" fill="url(#bg)"/>
  <!-- Card fan -->
  <rect x="10" y="10" width="12" height="18" rx="2" fill="#11108a" stroke="#f59e0b" stroke-width="0.8" opacity="0.7" transform="rotate(-20,16,19)"/>
  <rect x="13" y="9" width="12" height="18" rx="2" fill="#11108a" stroke="#f59e0b" stroke-width="0.8" opacity="0.8" transform="rotate(-8,19,18)"/>
  <rect x="16" y="8" width="12" height="18" rx="2" fill="#13118c" stroke="#f59e0b" stroke-width="0.8" opacity="0.9" transform="rotate(5,22,17)"/>
  <rect x="19" y="9" width="12" height="18" rx="2" fill="#11108a" stroke="#f59e0b" stroke-width="0.8" opacity="0.8" transform="rotate(18,25,18)"/>
  <!-- Shield -->
  <path d="M16,16 L32,16 L34,28 L24,35 L14,28 Z" fill="#0e0c7a" stroke="url(#a)" stroke-width="1.5"/>
  <text x="24" y="28" text-anchor="middle" dominant-baseline="middle" fill="white" font-size="10" font-weight="900" font-family="'Arial Black',Arial,sans-serif">PS</text>
</svg>
